<svg xmlns="http://www.w3.org/2000/svg" viewBox="0 0 371 370.67"><defs><style>.a{fill:#353535;}.b{fill:#fff;}</style></defs><rect class="a" width="371" height="370.67" rx="28.84"/><path class="b" d="M589.63,909.29c0,20.06-5.53,38-16.9,53.64-12,17.49-30.87,27.06-52.64,27.06H454.46V824.86h65.63c21.77,0,40.62,9.8,52.64,27.29C584.1,867.77,589.63,886.9,589.63,909.29Zm-8.45,0c0-14.69-2.28-28-7.15-39.88-9.75-24-28.92-38.72-53.94-38.72H462.58V984.16h57.51c19.17,0,34.44-7.93,45.49-23.79Q581.18,939,581.18,909.29Zm-7.8.47a86.9,86.9,0,0,1-6.17,32.65c-8.45,21.46-24.7,36.38-46.47,36.38H471V837h49.06c17.87,0,31.19,7.93,40.62,23.79Q573.39,880.37,573.38,909.76Zm-8.12,0a101.34,101.34,0,0,0-5.53-33.59c-7.47-20.29-21.44-33.35-39.64-33.35H479.48V973h40.61c13.65,0,24.7-6.76,33.14-20.06C561.36,938.91,565.26,926.32,565.26,909.76Zm-8.13,0a83.68,83.68,0,0,1-4.22,26.82c-5.52,17.72-16.9,30.55-32.17,30.55H487.6V848.42h32.49c12.67,0,22.1,6.76,28.92,20.05C554.53,880.37,557.13,894.13,557.13,909.76Zm-8.12,0q0-23.44-7.8-39.19c-5.52-10.73-12.34-16.09-21.12-16.09H495.4V961.3h24.69c8.78,0,15.92-5.36,21.12-16.09A80.46,80.46,0,0,0,549,909.76Z" transform="translate(-325 -718.98)"/></svg>