<svg xmlns="http://www.w3.org/2000/svg" viewBox="0 0 1162 370.67"><defs><style>.a{fill:#353535;}.b{fill:#fff;}</style></defs><rect class="a" width="1162" height="370.67" rx="28.84"/><path class="b" d="M608.63,462.88c0,20.06-5.53,38-16.9,53.64-12,17.5-30.87,27.06-52.64,27.06H473.46V378.45h65.63c21.77,0,40.62,9.8,52.64,27.29C603.1,421.37,608.63,440.49,608.63,462.88Zm-8.45,0c0-14.69-2.28-28-7.15-39.88-9.75-24-28.92-38.72-53.94-38.72H481.58V537.75h57.51c19.17,0,34.44-7.93,45.49-23.79Q600.18,492.62,600.18,462.88Zm-7.8.47A86.9,86.9,0,0,1,586.21,496c-8.45,21.46-24.7,36.38-46.47,36.38H490V390.58h49.06c17.87,0,31.19,7.93,40.62,23.79Q592.39,434,592.38,463.35Zm-8.12,0a101.34,101.34,0,0,0-5.53-33.59c-7.47-20.29-21.44-33.35-39.64-33.35H498.48V526.55h40.61c13.65,0,24.7-6.76,33.14-20.06C580.36,492.5,584.26,479.91,584.26,463.35Zm-8.13,0a83.68,83.68,0,0,1-4.22,26.82c-5.52,17.72-16.9,30.55-32.17,30.55H506.6V402h32.49c12.67,0,22.1,6.76,28.92,20.05C573.53,434,576.13,447.72,576.13,463.35Zm-8.12,0q0-23.44-7.8-39.19c-5.52-10.72-12.34-16.09-21.12-16.09H514.4V514.89h24.69c8.78,0,15.92-5.36,21.12-16.09A80.46,80.46,0,0,0,568,463.35Z" transform="translate(-325 -272.57)"/><path class="b" d="M715.52,379.15l66,164.89H774l-24.37-60.4H704.8L680.43,544h-8.12L699,478.27H747l-2.27-5.59H693.11L664.51,544H657l30.54-76.5h55.56L740.87,462H682.06L648.92,544h-7.8l66.61-164.89Zm-4.22,9.56L684,456.35h7.8l23.71-57.84Zm7.8,19.36-19.5,48.28h8.13l15.59-38.25Zm7.8,19.59-11.38,28.69,22.75.47Zm4.22-48.51,66,164.89h-7.8l-66-164.89Zm15.6,0,66,164.89h-7.8l-66-164.89Z" transform="translate(-325 -272.57)"/><path class="b" d="M853.29,378.68V544h-8.12V378.68Zm16.9,0V544h-8.45V378.68Zm16.24,0V544h-8.12V378.68Z" transform="translate(-325 -272.57)"/><path class="b" d="M1054.09,462.88c0,20.06-5.52,38-16.89,53.64-12,17.5-30.87,27.06-52.64,27.06H918.93V378.45h65.63c21.77,0,40.61,9.8,52.64,27.29C1048.57,421.37,1054.09,440.49,1054.09,462.88Zm-8.45,0c0-14.69-2.27-28-7.14-39.88-9.75-24-28.92-38.72-53.94-38.72H927.05V537.75h57.51c19.17,0,34.44-7.93,45.49-23.79Q1045.65,492.62,1045.64,462.88Zm-7.79.47a86.71,86.71,0,0,1-6.18,32.65c-8.45,21.46-24.69,36.38-46.46,36.38H935.5V390.58h49.06c17.87,0,31.19,7.93,40.61,23.79Q1037.84,434,1037.85,463.35Zm-8.13,0a101.59,101.59,0,0,0-5.52-33.59c-7.47-20.29-21.45-33.35-39.64-33.35H943.94V526.55h40.62c13.65,0,24.69-6.76,33.14-20.06C1025.82,492.5,1029.72,479.91,1029.72,463.35Zm-8.12,0a83.68,83.68,0,0,1-4.22,26.82c-5.53,17.72-16.9,30.55-32.17,30.55H952.07V402h32.49c12.67,0,22.09,6.76,28.92,20.05C1019,434,1021.6,447.72,1021.6,463.35Zm-8.12,0q0-23.44-7.8-39.19c-5.52-10.72-12.35-16.09-21.12-16.09H959.87V514.89h24.69c8.77,0,15.92-5.36,21.12-16.09A80.46,80.46,0,0,0,1013.48,463.35Z" transform="translate(-325 -272.57)"/><path class="b" d="M1161,379.15,1227,544h-7.47l-24.37-60.4h-44.84L1125.9,544h-8.12l26.64-65.77h48.09l-2.28-5.59h-51.66L1110,544h-7.47l30.54-76.5h55.56l-2.27-5.59h-58.81L1094.38,544h-7.8l66.61-164.89Zm-4.22,9.56-27.3,67.64h7.8L1161,398.51Zm7.8,19.36-19.5,48.28h8.12l15.6-38.25Zm7.79,19.59L1161,456.35l22.75.47Zm4.23-48.51,66,164.89h-7.8l-66-164.89Zm15.59,0,66,164.89h-7.8l-65.95-164.89Z" transform="translate(-325 -272.57)"/><path class="b" d="M1298.76,378.68V544h-8.12V378.68Zm16.9,0V544h-8.45V378.68Zm16.24,0V544h-8.12V378.68Z" transform="translate(-325 -272.57)"/></svg>